<?xml version="1.0" encoding="utf-8"?>
<!-- Generator: Adobe Illustrator 16.0.4, SVG Export Plug-In . SVG Version: 6.00 Build 0)  -->
<!DOCTYPE svg PUBLIC "-//W3C//DTD SVG 1.1//EN" "http://www.w3.org/Graphics/SVG/1.1/DTD/svg11.dtd">
<svg version="1.1" id="Layer_1" xmlns="http://www.w3.org/2000/svg" xmlns:xlink="http://www.w3.org/1999/xlink" x="0px" y="0px"
	 width="250px" height="186px" viewBox="0 0 250 186" enable-background="new 0 0 250 186" xml:space="preserve">
<g>
	<path d="M116.723,139.832c2.071,0.483,3.532,0.953,4.096,1.367c1.158,0.838,0.738,2.848-0.314,4.006
		c-1.053,1.156-0.844,1.373-0.424,2.215c0.42,0.853,8.121,15.715,9.388,20.353c1.263,4.645,1.158,5.481-1.375,7.914
		c-2.526,2.432-12.649,5.271-22.562,5.271h-0.108c-9.916,0-20.034-2.84-22.563-5.271c-2.536-2.433-2.641-3.271-1.373-7.914
		c1.265-4.638,8.965-19.5,9.388-20.353c0.422-0.842,0.629-1.059-0.424-2.215c-1.054-1.158-1.476-3.158-0.313-4.006
		c0.956-0.699,4.668-1.818,10.475-2.123C106.419,138.771,113.898,139.17,116.723,139.832z"/>
	<path fill="#FFFFFF" d="M115.645,147.105c0,0-4.53,0.418-5.582,0.418c3.269,9.069,5.168,14.771,4.955,19.823
		c0,0,5.799,0.847,7.381-2.524c1.582-3.375-6.433-17.504-6.433-17.504"/>
</g>
<path fill="#FFFFFF" d="M93.059,148.134c4.488,1.562,7.905,1.489,8.812,1.438c3.321-0.208,3.103-1.933,0.237-2.021
	c-3.78-0.105-5.812-0.265-8.217-0.479C93.889,147.066,91.562,147.615,93.059,148.134z"/>
<path fill="#A0968C" d="M104.88,130.527c-1.142-1.617-3.683-3.369-3.496-5.242c1.093-3.434,2.482-13.986,3.437-16.421
	c0.959-2.435,5.316-3.982,5.766-7.093c0.441-3.1,1.77-16.396,4.428-19.938c2.66-3.543,7.535-7.979,8.862-15.51
	c1.327-7.533,11.282-18.771,12.851-19.939c1.576-1.168,3.104-1.332,3.104-1.332s4.878-8.418,5.763-11.078s13.735-11.52,13.735-11.52
	s6.155-10.875,11.075-13.296C196.55-3.696,200.1,17.136,196.55,22.888c-3.543,5.771-3.983,14.627-6.646,15.959
	c-2.66,1.326-8.422,11.521-11.967,15.062s-12.41,20.385-18.17,23.936c-5.763,3.545-13.735,17.726-19.494,23.479
	c-5.76,5.77-12.854,20.832-13.297,24.377c-2.688,7.075-9.902,3.985-13.791,6.431c-0.623,0.675-0.754,1.03-2.152,5.228
	c-0.487,1.217-0.973,3.101-1.672,4.752c-1.748,5.714-9.418,3.474-8.159-0.468c1.178-3.771,1.907-5.977,2.666-8.032
	C104.729,131.277,104.88,130.527,104.88,130.527z"/>
<path fill="#FFFFFF" d="M102.605,141.214c0,0,31.701-86.402,87.3-130.728c0,0-61.228,60.521-82.425,131.616
	C106.703,145.736,101.221,143.727,102.605,141.214z"/>
<g>
	<path d="M243.305,63.413c-0.422-1.519-1.135-2.871-2.119-4.041c-1.014-1.199-2.312-2.148-3.858-2.818
		c-1.479-0.637-3.229-0.961-5.201-0.961c-1.625,0-3.217,0.264-4.729,0.789c-0.854,0.293-1.674,0.646-2.448,1.047
		c-0.351-0.271-0.767-0.521-1.261-0.725c-0.563-0.23-1.207-0.396-1.975-0.488c-0.576-0.076-1.248-0.113-2.057-0.113
		c-0.777,0-1.445,0.035-2.045,0.105c-0.724,0.086-1.336,0.215-1.896,0.396c-0.996,0.334-1.819,0.871-2.461,1.611
		c-0.321,0.373-0.582,0.793-0.793,1.24c-0.065-0.16-0.121-0.324-0.202-0.479c-0.392-0.729-1.164-1.719-2.658-2.305
		c-0.558-0.215-1.189-0.367-1.941-0.463c-0.582-0.072-1.244-0.109-2.031-0.109c-1.715,0-2.979,0.154-3.972,0.48
		c-0.487,0.159-0.938,0.366-1.353,0.62c-0.043-0.022-0.088-0.051-0.129-0.069c-1.9-1.023-4.06-1.541-6.416-1.541
		c-2.373,0-4.562,0.438-6.513,1.312c-1.856,0.83-3.533,1.97-4.979,3.369c-0.772,0.756-1.481,1.582-2.139,2.465
		c0.184-1.635-0.219-2.856-0.705-3.694c0.051-0.037,0.098-0.074,0.146-0.113c0.9-0.713,1.621-1.635,2.145-2.74
		c0.395-0.848,0.689-1.795,0.893-2.861c0.212-1.082,0.289-2.03,0.234-2.899c-0.086-1.398-0.578-2.672-1.443-3.701
		c-0.836-0.984-1.959-1.674-3.35-2.045c-0.893-0.23-1.916-0.348-3.127-0.348c-1.203,0-2.234,0.104-3.156,0.327
		c-1.18,0.283-2.227,0.786-3.112,1.495c-0.914,0.731-1.636,1.657-2.146,2.768c-0.357,0.773-0.643,1.651-0.871,2.68l-0.027,0.127
		c-0.211,1.119-0.276,2.104-0.211,2.998c0.041,0.543,0.146,1.068,0.31,1.562h-3.836l0.188-0.932c0.229-1.129,0.08-2.254-0.422-3.26
		c-0.383-0.756-1.152-1.793-2.719-2.428c-0.646-0.269-1.389-0.438-2.271-0.527c-0.633-0.062-1.362-0.098-2.235-0.098
		c-0.894,0-1.638,0.03-2.278,0.098c-0.83,0.086-1.543,0.238-2.185,0.463c-0.957,0.344-1.757,0.848-2.353,1.49
		c-0.688,0.729-1.154,1.629-1.352,2.598l-0.521,2.603c-1.27,0.059-2.44,0.575-3.367,1.461c-0.312-0.197-0.646-0.39-1.021-0.562
		c-0.678-0.312-1.42-0.588-2.277-0.834c-0.812-0.229-1.725-0.418-2.701-0.555c-0.979-0.141-2-0.207-3.032-0.207
		c-2.345,0-4.505,0.336-6.421,0.996c-1.995,0.688-3.74,1.68-5.188,2.946c-0.354,0.312-0.688,0.64-1.003,0.978
		c-0.089-0.498-0.243-0.98-0.485-1.435c-0.031-0.062-0.066-0.12-0.104-0.188c0.896-0.711,1.606-1.621,2.118-2.709
		c0.396-0.848,0.693-1.795,0.893-2.861c0.215-1.082,0.291-2.03,0.236-2.899c-0.084-1.398-0.578-2.672-1.441-3.701
		c-0.836-0.984-1.959-1.674-3.353-2.045c-0.894-0.23-1.915-0.351-3.125-0.351c-1.204,0-2.233,0.105-3.158,0.33
		c-1.179,0.283-2.225,0.785-3.112,1.494c-0.896,0.721-1.612,1.625-2.131,2.703c-0.402,0.838-0.699,1.773-0.89,2.77
		c-0.251,1.152-0.336,2.171-0.265,3.101c0.068,0.861,0.295,1.67,0.654,2.396c-0.385-0.284-0.803-0.541-1.296-0.75
		c-0.45-0.19-0.94-0.352-1.457-0.465c-0.386-0.087-0.806-0.156-1.251-0.217c-0.494-0.062-0.982-0.098-1.458-0.098
		c-1.271,0-2.548,0.252-3.8,0.746c-0.542,0.215-1.078,0.469-1.602,0.762c-0.248-0.15-0.515-0.287-0.793-0.4
		c-0.561-0.229-1.199-0.387-1.961-0.479c-0.572-0.076-1.246-0.113-2.058-0.113c-0.774,0-1.442,0.035-2.039,0.105
		c-0.722,0.086-1.338,0.215-1.897,0.396c-0.945,0.318-1.742,0.818-2.375,1.5c-0.664,0.719-1.117,1.604-1.312,2.564l-0.858,4.29
		c-0.093-0.59-0.211-1.168-0.369-1.726c-0.444-1.549-1.184-2.91-2.199-4.062c-1.034-1.172-2.344-2.082-3.895-2.711
		c-1.445-0.584-3.138-0.879-5.035-0.879c-1.004,0-2.002,0.108-2.98,0.326l1.23-6.273c0.225-1.119,0.078-2.242-0.424-3.256
		c-0.373-0.744-1.134-1.764-2.644-2.404c-0.628-0.264-1.351-0.443-2.194-0.553c-0.65-0.086-1.424-0.125-2.359-0.125
		c-0.932,0-1.707,0.039-2.354,0.121c-0.787,0.094-1.469,0.244-2.088,0.453c-1.029,0.354-1.869,0.899-2.485,1.613
		c-0.01,0.01-0.013,0.02-0.021,0.022c-0.249-0.428-0.545-0.83-0.894-1.201c-0.774-0.812-1.846-1.557-3.373-2.346
		c-1.379-0.709-2.976-1.277-4.746-1.688c-1.748-0.402-3.609-0.609-5.53-0.609c-3.369,0-6.511,0.528-9.33,1.58
		c-2.776,1.022-5.298,2.438-7.495,4.202c-2.167,1.732-4.072,3.789-5.663,6.104c-1.53,2.229-2.812,4.619-3.81,7.105
		c-0.98,2.449-1.728,5-2.217,7.578c-0.482,2.562-0.729,5.075-0.729,7.471c0,3.229,0.476,6.146,1.403,8.657
		c0.981,2.64,2.418,4.888,4.271,6.682c1.217,1.174,2.625,2.143,4.178,2.924L7.287,116.384c-0.415,0.764-0.692,1.395-0.879,1.99
		c-0.491,1.584-0.244,3.211,0.68,4.461c0.58,0.785,1.682,1.77,3.641,1.998c0.543,0.062,1.196,0.096,2.057,0.096
		c0.738,0,1.348-0.018,1.851-0.053c0.722-0.049,1.339-0.154,1.896-0.316c0.983-0.287,1.812-0.791,2.422-1.438
		c0.411-0.438,0.766-0.938,1.053-1.502l1.72-3.262h4.375l0.26,1.937c0.084,0.827,0.334,1.58,0.744,2.229
		c0.619,0.996,1.57,1.719,2.729,2.064c0.521,0.162,1.087,0.256,1.786,0.299c0.42,0.025,0.957,0.041,1.617,0.041
		c0.906,0,1.623-0.021,2.195-0.066c1.299-0.104,2.353-0.479,3.219-1.153c0.191-0.148,0.365-0.312,0.531-0.484
		c0.652,0.545,1.401,0.998,2.248,1.34c1.117,0.449,2.408,0.684,3.836,0.684c1.168,0,2.324-0.19,3.438-0.569
		c0.336-0.113,0.664-0.24,0.986-0.381c0.094,0.045,0.189,0.088,0.287,0.125c0.488,0.202,1.03,0.34,1.652,0.416
		c0.432,0.059,0.92,0.084,1.494,0.084c0.562,0,1.049-0.025,1.486-0.076c0.558-0.067,1.049-0.17,1.5-0.319
		c0.884-0.3,1.629-0.778,2.244-1.481c0.287-0.332,0.523-0.704,0.715-1.108c0.322,0.447,0.686,0.863,1.103,1.227
		c0.872,0.767,1.923,1.312,3.114,1.646c0.939,0.259,1.994,0.393,3.132,0.393c0.532,0,1.069-0.035,1.599-0.102
		c0.514-0.062,1.01-0.155,1.478-0.271c0.563-0.141,1.062-0.307,1.524-0.514c0.215-0.096,0.396-0.213,0.592-0.324
		c0.283,0.184,0.605,0.348,0.977,0.48c0.512,0.188,1.078,0.313,1.732,0.385c0.453,0.051,0.977,0.072,1.599,0.072
		c0.599,0,1.112-0.021,1.582-0.067c0.621-0.062,1.16-0.169,1.659-0.327c0.837-0.272,1.55-0.695,2.117-1.271
		c0.101-0.103,0.195-0.203,0.287-0.312c0.428,0.536,1.086,1.121,2.074,1.498c0.52,0.201,1.104,0.336,1.784,0.406
		c0.452,0.051,0.968,0.072,1.577,0.072c0.626,0,1.154-0.022,1.619-0.067c0.609-0.062,1.144-0.169,1.641-0.327
		c0.837-0.273,1.547-0.695,2.119-1.271c0.373-0.373,0.674-0.81,0.906-1.279c0.121,0.123,0.229,0.26,0.359,0.375
		c1.074,1.005,2.397,1.76,3.926,2.246c1.348,0.434,2.897,0.649,4.613,0.649c1.764,0,3.41-0.258,4.893-0.767
		c1.467-0.503,2.804-1.204,3.972-2.099c0.054-0.043,0.103-0.084,0.155-0.127c0.382,0.717,1.135,1.668,2.583,2.205
		c0.511,0.188,1.077,0.312,1.733,0.385c0.452,0.049,0.975,0.072,1.598,0.072c0.598,0,1.113-0.023,1.582-0.068
		c0.619-0.062,1.16-0.168,1.658-0.328c0.836-0.271,1.549-0.694,2.119-1.27c0.67-0.673,1.129-1.521,1.334-2.492l0.084-0.422
		c0.047,0.174,0.084,0.358,0.146,0.521c0.26,0.674,0.659,1.281,1.19,1.812l0.111,0.104c0.414,0.383,0.916,0.729,1.533,1.064
		c0.568,0.311,1.229,0.563,1.951,0.776c0.604,0.177,1.273,0.321,1.988,0.438c0.772,0.121,1.584,0.188,2.414,0.188
		c1.717,0,3.315-0.242,4.756-0.726c1.521-0.508,2.854-1.24,3.973-2.186c0.869-0.74,2.57-1.597,3.146-2.562
		c0.469,0.595,0.969,1.152,1.536,1.652c1.489,1.332,3.327,2.332,5.457,2.973c1.935,0.584,4.146,0.881,6.567,0.881
		c1.281,0,2.562-0.1,3.814-0.289c1.192-0.188,2.301-0.424,3.278-0.69c0.988-0.275,1.865-0.568,2.613-0.873
		c1.221-0.508,2.006-1.008,2.618-1.686c0.156-0.175,0.285-0.355,0.423-0.546c0.256,0.438,0.54,0.853,0.875,1.23
		c0.812,0.92,1.854,1.641,3.081,2.137c1.117,0.445,2.406,0.678,3.832,0.678c1.175,0,2.33-0.188,3.435-0.567
		c0.341-0.113,0.673-0.24,0.994-0.382c0.103,0.046,0.196,0.093,0.301,0.136c0.488,0.196,1.022,0.33,1.642,0.405
		c0.432,0.06,0.918,0.085,1.49,0.085c0.562,0,1.049-0.025,1.485-0.076c0.56-0.068,1.045-0.17,1.498-0.32
		c0.588-0.195,1.104-0.48,1.555-0.832c0.369,0.296,0.82,0.566,1.382,0.771c0.51,0.188,1.073,0.312,1.733,0.385
		c0.453,0.049,0.979,0.072,1.599,0.072c0.604,0,1.114-0.023,1.577-0.068c0.63-0.062,1.171-0.172,1.647-0.324
		c0.617-0.199,1.173-0.484,1.646-0.854c0.362,0.291,0.803,0.561,1.354,0.771c0.52,0.197,1.098,0.328,1.771,0.4
		c0.451,0.049,0.979,0.072,1.613,0.072c0.604,0,1.116-0.023,1.578-0.068c0.643-0.062,1.19-0.176,1.688-0.338
		c0.812-0.275,1.51-0.699,2.07-1.26c0.293-0.297,0.537-0.623,0.742-0.978c0.312,0.354,0.642,0.688,1.008,0.982
		c0.775,0.635,1.688,1.135,2.701,1.479c0.977,0.336,2.074,0.506,3.256,0.506c1.199,0,2.379-0.192,3.5-0.577
		c0.305-0.104,0.604-0.218,0.896-0.339c0.125,0.06,0.253,0.107,0.382,0.158c0.496,0.188,1.03,0.308,1.646,0.369
		c0.396,0.043,0.854,0.062,1.398,0.062c1.271,0,2.195-0.115,2.996-0.382c1.813-0.594,3.104-2.02,3.428-3.756l4.99-25.002
		c0.211-1.002,0.002-2.307-0.394-3.176c0.404-0.467,0.687-0.771,0.687-0.771c0.743-0.738,1.246-1.673,1.445-2.688l3.344-16.595
		c0.153-0.812,0.284-1.625,0.387-2.406c0.113-0.867,0.17-1.76,0.17-2.648C243.85,66.079,243.664,64.701,243.305,63.413z"/>
	<g>
		<path fill="#4EC1E0" d="M50.285,46.987c0,0.646-0.11,1.513-0.329,2.597c-0.22,1.08-0.495,1.95-0.83,2.604
			c-0.332,0.658-0.709,0.984-1.123,0.984c-0.299,0-0.655-0.189-1.071-0.57c-0.414-0.379-0.955-0.789-1.623-1.225
			c-0.668-0.439-1.521-0.851-2.557-1.229c-1.038-0.381-2.33-0.565-3.873-0.565c-1.704,0-3.26,0.34-4.665,1.02
			c-1.407,0.682-2.659,1.578-3.767,2.693c-1.107,1.117-2.074,2.4-2.904,3.854c-0.829,1.451-1.514,2.959-2.057,4.525
			c-0.541,1.565-0.944,3.127-1.209,4.684c-0.264,1.562-0.397,3.002-0.397,4.342c0,1.609,0.203,3.025,0.604,4.246
			c0.404,1.228,0.986,2.236,1.744,3.045c0.763,0.808,1.694,1.41,2.801,1.812c1.105,0.404,2.351,0.604,3.732,0.604
			c1.637,0,3.034-0.174,4.2-0.52c1.161-0.348,2.153-0.726,2.972-1.141c0.819-0.414,1.498-0.798,2.041-1.146
			c0.541-0.344,1.028-0.518,1.467-0.518c0.301,0,0.502,0.104,0.604,0.328c0.104,0.219,0.156,0.521,0.156,0.916
			c0,0.155-0.021,0.397-0.069,0.725c-0.047,0.322-0.104,0.688-0.173,1.09s-0.149,0.842-0.242,1.312
			c-0.092,0.473-0.194,0.903-0.311,1.312c-0.117,0.404-0.249,0.771-0.396,1.107c-0.152,0.334-0.354,0.627-0.607,0.881
			c-0.254,0.254-0.748,0.584-1.486,0.984c-0.736,0.397-1.636,0.774-2.693,1.12c-1.062,0.347-2.259,0.642-3.594,0.886
			c-1.337,0.235-2.766,0.357-4.287,0.357c-2.512,0-4.775-0.336-6.791-1.002c-2.016-0.668-3.727-1.682-5.133-3.041
			c-1.406-1.354-2.488-3.062-3.248-5.117c-0.762-2.049-1.141-4.44-1.141-7.188c0-2.146,0.22-4.373,0.654-6.688
			c0.439-2.312,1.102-4.577,1.988-6.786c0.887-2.216,2.01-4.312,3.369-6.291c1.361-1.98,2.967-3.72,4.822-5.199
			c1.854-1.486,3.962-2.666,6.324-3.541c2.361-0.877,4.982-1.316,7.863-1.316c1.611,0,3.139,0.17,4.578,0.502
			c1.44,0.334,2.694,0.779,3.768,1.33c1.07,0.554,1.818,1.057,2.246,1.506C50.07,45.725,50.285,46.296,50.285,46.987z"/>
		<path fill="#4EC1E0" d="M73.643,86.367c-0.043,0.195-0.137,0.375-0.287,0.521c-0.15,0.15-0.383,0.275-0.688,0.377
			c-0.312,0.102-0.713,0.172-1.203,0.229c-0.491,0.049-1.116,0.069-1.879,0.069c-0.721,0-1.315-0.021-1.787-0.069
			c-0.471-0.058-0.836-0.128-1.096-0.229c-0.261-0.102-0.437-0.227-0.524-0.377c-0.093-0.146-0.117-0.326-0.076-0.521l3.217-16.071
			c0.078-0.422,0.146-0.896,0.207-1.429c0.061-0.528,0.092-1.01,0.092-1.43c0-0.438-0.045-0.846-0.137-1.217
			c-0.09-0.371-0.234-0.688-0.435-0.961c-0.2-0.271-0.461-0.479-0.78-0.631c-0.322-0.152-0.701-0.229-1.144-0.229
			c-0.821,0-1.679,0.265-2.567,0.779c-0.891,0.521-1.732,1.232-2.523,2.135c-0.792,0.9-1.498,1.949-2.117,3.152
			c-0.621,1.201-1.062,2.473-1.321,3.816l-2.435,12.071c-0.039,0.199-0.135,0.375-0.286,0.525c-0.147,0.15-0.379,0.275-0.69,0.377
			c-0.311,0.098-0.715,0.172-1.218,0.226c-0.498,0.053-1.108,0.073-1.831,0.073c-0.74,0-1.347-0.021-1.816-0.073
			c-0.471-0.054-0.84-0.128-1.112-0.226c-0.271-0.102-0.444-0.227-0.526-0.377c-0.078-0.15-0.099-0.326-0.058-0.525L56.52,46.85
			c0.039-0.194,0.129-0.381,0.271-0.541c0.139-0.155,0.369-0.293,0.688-0.399c0.321-0.111,0.729-0.197,1.219-0.257
			c0.49-0.062,1.105-0.094,1.849-0.094c0.739,0,1.345,0.029,1.815,0.094c0.473,0.06,0.838,0.146,1.098,0.257
			c0.262,0.106,0.43,0.243,0.512,0.399c0.078,0.16,0.101,0.347,0.062,0.541l-2.136,10.873c-0.1,0.441-0.211,0.912-0.33,1.414
			c-0.12,0.5-0.256,0.996-0.407,1.484c-0.147,0.494-0.3,0.969-0.449,1.428c-0.149,0.463-0.295,0.873-0.437,1.232
			c0.381-0.646,0.901-1.281,1.562-1.923c0.66-0.645,1.418-1.225,2.27-1.739c0.851-0.523,1.771-0.947,2.765-1.279
			c0.991-0.33,2.008-0.496,3.048-0.496c1.364,0,2.514,0.189,3.455,0.572c0.939,0.379,1.714,0.912,2.312,1.59
			c0.603,0.682,1.037,1.494,1.31,2.438c0.269,0.938,0.403,1.972,0.403,3.093c0,0.723-0.041,1.438-0.121,2.146
			c-0.08,0.709-0.19,1.414-0.329,2.117L73.643,86.367z"/>
		<path fill="#4EC1E0" d="M103.291,59.15c0,0.146-0.021,0.396-0.062,0.75c-0.039,0.359-0.099,0.781-0.18,1.267
			c-0.078,0.479-0.179,0.977-0.3,1.483c-0.121,0.514-0.257,0.986-0.403,1.431c-0.152,0.438-0.322,0.801-0.513,1.082
			c-0.19,0.276-0.396,0.42-0.616,0.42c-0.179,0-0.359-0.033-0.541-0.105c-0.179-0.068-0.381-0.139-0.599-0.209
			c-0.222-0.068-0.463-0.143-0.722-0.211c-0.262-0.066-0.562-0.104-0.902-0.104c-0.682,0-1.409,0.265-2.18,0.779
			c-0.771,0.521-1.506,1.209-2.205,2.062c-0.703,0.85-1.328,1.842-1.879,2.973c-0.551,1.133-0.946,2.318-1.188,3.562L88.6,86.38
			c-0.041,0.196-0.135,0.375-0.287,0.521c-0.148,0.15-0.381,0.275-0.689,0.379c-0.311,0.101-0.716,0.172-1.217,0.228
			c-0.501,0.049-1.111,0.072-1.831,0.072c-0.741,0-1.351-0.023-1.818-0.072c-0.471-0.056-0.842-0.127-1.11-0.228
			c-0.271-0.104-0.447-0.229-0.526-0.379c-0.081-0.146-0.099-0.324-0.06-0.521l5.347-26.826c0.04-0.199,0.132-0.375,0.271-0.523
			c0.142-0.15,0.346-0.271,0.617-0.357c0.271-0.094,0.618-0.161,1.051-0.214c0.43-0.052,0.945-0.072,1.547-0.072
			c0.621,0,1.127,0.021,1.519,0.072c0.39,0.053,0.694,0.12,0.916,0.214c0.221,0.089,0.366,0.207,0.435,0.357
			c0.071,0.148,0.086,0.324,0.047,0.523l-0.843,4.267c0.48-0.858,1.035-1.649,1.669-2.372c0.631-0.723,1.303-1.35,2.012-1.881
			c0.711-0.529,1.447-0.942,2.209-1.244c0.761-0.303,1.512-0.45,2.25-0.45c0.304,0,0.608,0.021,0.92,0.062
			c0.309,0.039,0.6,0.09,0.871,0.151c0.27,0.06,0.51,0.136,0.72,0.226c0.211,0.088,0.375,0.188,0.495,0.283
			C103.23,58.698,103.291,58.889,103.291,59.15z"/>
		<path fill="#4EC1E0" d="M110.26,86.367c-0.039,0.195-0.135,0.375-0.285,0.521c-0.149,0.15-0.381,0.275-0.69,0.377
			s-0.718,0.172-1.216,0.229c-0.502,0.049-1.112,0.069-1.834,0.069c-0.738,0-1.348-0.021-1.817-0.069
			c-0.469-0.058-0.841-0.128-1.108-0.229c-0.272-0.102-0.447-0.227-0.526-0.377c-0.081-0.146-0.103-0.326-0.06-0.521l5.315-26.733
			c0.039-0.203,0.135-0.379,0.285-0.527c0.151-0.146,0.38-0.277,0.69-0.393c0.312-0.109,0.711-0.193,1.201-0.256
			s1.105-0.089,1.85-0.089c0.74,0,1.346,0.025,1.816,0.089c0.469,0.062,0.84,0.146,1.109,0.256c0.271,0.108,0.445,0.242,0.527,0.393
			c0.08,0.148,0.101,0.324,0.061,0.527L110.26,86.367z M118.01,50.557c-0.139,0.744-0.33,1.369-0.57,1.881
			c-0.239,0.51-0.561,0.92-0.961,1.23c-0.399,0.311-0.891,0.528-1.473,0.662c-0.58,0.129-1.301,0.188-2.162,0.188
			c-0.841,0-1.525-0.062-2.06-0.188c-0.528-0.134-0.931-0.354-1.2-0.662c-0.27-0.312-0.426-0.728-0.466-1.23
			c-0.042-0.512,0.021-1.137,0.181-1.881c0.141-0.719,0.331-1.33,0.57-1.832c0.24-0.498,0.562-0.908,0.962-1.229
			c0.401-0.32,0.892-0.556,1.472-0.691c0.58-0.139,1.303-0.211,2.164-0.211c0.84,0,1.526,0.072,2.057,0.211
			c0.531,0.143,0.932,0.371,1.203,0.691c0.27,0.317,0.42,0.729,0.449,1.229C118.207,49.227,118.152,49.839,118.01,50.557z"/>
		<path fill="#4EC1E0" d="M139.91,60.742c0,0.239-0.035,0.6-0.104,1.067c-0.07,0.471-0.181,0.943-0.314,1.428
			c-0.143,0.479-0.309,0.896-0.496,1.242c-0.191,0.354-0.408,0.527-0.648,0.527c-0.258,0-0.562-0.096-0.914-0.285
			c-0.352-0.188-0.772-0.4-1.279-0.631c-0.493-0.229-1.084-0.438-1.756-0.615c-0.672-0.182-1.457-0.271-2.354-0.271
			c-0.701,0-1.328,0.09-1.879,0.271c-0.555,0.182-1.006,0.424-1.365,0.736c-0.357,0.309-0.639,0.676-0.824,1.096
			c-0.188,0.42-0.285,0.871-0.285,1.354c0,0.618,0.259,1.143,0.767,1.562c0.51,0.42,1.146,0.816,1.91,1.188
			c0.76,0.371,1.579,0.756,2.461,1.153c0.883,0.4,1.7,0.9,2.465,1.5c0.763,0.604,1.392,1.332,1.892,2.195
			c0.502,0.859,0.754,1.941,0.754,3.242c0,1.521-0.291,2.93-0.871,4.223c-0.584,1.291-1.428,2.406-2.539,3.354
			c-1.109,0.938-2.465,1.676-4.057,2.207c-1.593,0.524-3.392,0.797-5.392,0.797c-0.96,0-1.88-0.073-2.751-0.211
			c-0.869-0.146-1.65-0.312-2.344-0.514c-0.688-0.2-1.273-0.433-1.754-0.689c-0.481-0.257-0.842-0.5-1.082-0.721
			c-0.162-0.158-0.277-0.33-0.348-0.515c-0.068-0.182-0.104-0.41-0.104-0.688c0-0.185,0.014-0.408,0.045-0.691
			c0.029-0.278,0.079-0.59,0.15-0.93c0.068-0.34,0.147-0.687,0.239-1.021c0.091-0.342,0.195-0.646,0.313-0.932
			c0.121-0.281,0.251-0.508,0.394-0.676c0.14-0.17,0.289-0.258,0.449-0.258c0.278,0,0.59,0.116,0.931,0.358
			c0.342,0.238,0.781,0.504,1.322,0.795s1.206,0.562,1.998,0.812c0.789,0.248,1.775,0.375,2.959,0.375
			c0.818,0,1.536-0.101,2.146-0.287c0.61-0.189,1.114-0.453,1.521-0.795c0.399-0.343,0.69-0.732,0.885-1.172
			c0.191-0.44,0.287-0.91,0.287-1.412c0-0.699-0.246-1.271-0.733-1.713c-0.488-0.439-1.105-0.854-1.851-1.23
			c-0.737-0.381-1.55-0.77-2.42-1.172c-0.869-0.402-1.675-0.891-2.417-1.471c-0.741-0.582-1.357-1.308-1.848-2.162
			c-0.489-0.861-0.736-1.945-0.736-3.246c0-1.422,0.271-2.742,0.812-3.963c0.541-1.229,1.332-2.291,2.373-3.203
			c1.039-0.908,2.299-1.619,3.785-2.131c1.479-0.517,3.165-0.771,5.049-0.771c0.844,0,1.655,0.06,2.446,0.166
			c0.789,0.109,1.502,0.254,2.136,0.438c0.633,0.182,1.184,0.383,1.647,0.602c0.474,0.225,0.81,0.439,1.008,0.662
			C139.799,59.923,139.91,60.26,139.91,60.742z"/>
		<path fill="#4EC1E0" d="M169.773,86.367c-0.043,0.195-0.137,0.375-0.287,0.521c-0.152,0.15-0.383,0.275-0.689,0.377
			c-0.312,0.102-0.713,0.172-1.203,0.229c-0.492,0.049-1.107,0.069-1.848,0.069c-0.723,0-1.322-0.021-1.803-0.069
			c-0.48-0.058-0.857-0.128-1.127-0.229c-0.271-0.102-0.451-0.227-0.541-0.377c-0.09-0.148-0.105-0.326-0.045-0.521l4.326-21.688
			h-12.052l-2.521,12.588c-0.062,0.299-0.115,0.654-0.166,1.064c-0.051,0.407-0.072,0.746-0.072,1.01
			c0,0.801,0.188,1.383,0.568,1.754c0.379,0.371,0.979,0.559,1.803,0.559c0.48,0,0.895-0.032,1.232-0.104
			c0.338-0.068,0.635-0.15,0.885-0.24c0.248-0.09,0.467-0.17,0.646-0.238c0.183-0.065,0.353-0.104,0.515-0.104
			c0.16,0,0.295,0.076,0.401,0.228c0.111,0.147,0.166,0.396,0.166,0.733c0,0.381-0.039,0.812-0.121,1.291
			c-0.075,0.479-0.184,0.949-0.312,1.396c-0.131,0.449-0.274,0.857-0.438,1.23c-0.157,0.371-0.325,0.646-0.51,0.824
			c-0.185,0.182-0.451,0.35-0.812,0.512s-0.787,0.299-1.275,0.422c-0.492,0.117-1.02,0.213-1.576,0.285
			c-0.562,0.07-1.121,0.104-1.686,0.104c-1.199,0-2.258-0.125-3.17-0.371c-0.912-0.254-1.676-0.648-2.299-1.188
			c-0.619-0.543-1.087-1.229-1.396-2.074c-0.312-0.84-0.469-1.858-0.469-3.062c0-0.221,0.014-0.479,0.031-0.77
			c0.021-0.288,0.051-0.597,0.104-0.915c0.051-0.317,0.101-0.646,0.149-0.977c0.051-0.332,0.104-0.629,0.164-0.889l2.611-13.066
			h-3.244c-0.26,0-0.447-0.084-0.566-0.254c-0.121-0.172-0.184-0.498-0.184-0.978c0-0.346,0.033-0.786,0.104-1.344
			c0.066-0.551,0.188-1.09,0.347-1.615c0.16-0.532,0.371-0.989,0.632-1.366c0.262-0.382,0.569-0.57,0.934-0.57h3.215l1.201-5.979
			c0.039-0.196,0.137-0.379,0.285-0.54c0.146-0.158,0.379-0.296,0.688-0.402c0.312-0.109,0.711-0.189,1.198-0.24
			c0.49-0.051,1.105-0.076,1.852-0.076c0.723,0,1.321,0.025,1.805,0.076c0.479,0.051,0.854,0.131,1.125,0.24
			c0.271,0.106,0.445,0.244,0.522,0.402c0.082,0.161,0.103,0.344,0.062,0.54l-1.201,5.979h17.336c0.842,0,1.391,0.178,1.648,0.539
			c0.262,0.359,0.317,0.881,0.182,1.562L169.773,86.367z M177.49,50.557c-0.139,0.744-0.33,1.369-0.568,1.881
			c-0.242,0.51-0.557,0.92-0.947,1.23c-0.39,0.31-0.883,0.528-1.471,0.662c-0.594,0.129-1.309,0.188-2.148,0.188
			c-0.842,0-1.522-0.062-2.061-0.188c-0.527-0.134-0.93-0.354-1.199-0.662c-0.271-0.312-0.426-0.728-0.465-1.23
			c-0.041-0.512,0.008-1.137,0.15-1.881c0.158-0.719,0.354-1.33,0.584-1.832c0.232-0.498,0.547-0.908,0.945-1.229
			c0.397-0.321,0.893-0.556,1.473-0.691s1.303-0.211,2.164-0.211c0.84,0,1.525,0.072,2.059,0.211
			c0.529,0.143,0.93,0.371,1.201,0.691c0.268,0.317,0.42,0.729,0.449,1.229C177.688,49.227,177.631,49.839,177.49,50.557z"/>
		<path fill="#4EC1E0" d="M202.244,86.396c-0.08,0.42-0.395,0.728-0.945,0.902c-0.55,0.177-1.436,0.27-2.66,0.27
			c-0.619,0-1.125-0.02-1.516-0.061s-0.705-0.104-0.945-0.193c-0.24-0.089-0.396-0.211-0.465-0.358
			c-0.072-0.15-0.088-0.334-0.047-0.56l0.842-4.295c-0.299,0.646-0.781,1.316-1.441,2.027c-0.657,0.711-1.438,1.354-2.344,1.938
			c-0.902,0.578-1.896,1.062-2.99,1.439c-1.092,0.38-2.219,0.573-3.377,0.573c-1.604,0-2.938-0.282-3.998-0.847
			c-1.06-0.561-1.905-1.312-2.553-2.268c-0.641-0.953-1.096-2.039-1.369-3.26c-0.268-1.226-0.399-2.51-0.399-3.851
			c0-1.264,0.116-2.637,0.356-4.131c0.24-1.492,0.611-2.977,1.111-4.463c0.5-1.479,1.143-2.908,1.924-4.279
			c0.781-1.37,1.717-2.588,2.807-3.646c1.097-1.062,2.351-1.908,3.763-2.537c1.405-0.631,3.006-0.947,4.791-0.947
			c1.66,0,3.133,0.353,4.414,1.037c1.276,0.691,2.399,1.697,3.358,3.021l0.482-2.373c0.08-0.421,0.396-0.728,0.945-0.902
			c0.553-0.182,1.438-0.271,2.66-0.271c0.6,0,1.102,0.021,1.502,0.072c0.396,0.053,0.717,0.121,0.947,0.213
			c0.229,0.091,0.385,0.207,0.465,0.359c0.078,0.15,0.102,0.326,0.061,0.525L202.244,86.396z M198.52,67.592
			c-0.699-1.104-1.477-1.928-2.326-2.479c-0.854-0.555-1.84-0.823-2.961-0.823c-0.842,0-1.608,0.196-2.311,0.602
			c-0.703,0.4-1.324,0.938-1.865,1.605c-0.539,0.67-1.016,1.442-1.428,2.325c-0.408,0.884-0.75,1.802-1.021,2.75
			c-0.268,0.949-0.469,1.908-0.6,2.888c-0.129,0.971-0.195,1.862-0.195,2.688c0,0.604,0.045,1.174,0.142,1.715
			c0.09,0.537,0.254,1.021,0.489,1.439c0.24,0.42,0.562,0.756,0.968,1.006c0.396,0.252,0.905,0.375,1.526,0.375
			c0.881,0,1.783-0.264,2.705-0.795c0.918-0.528,1.781-1.252,2.582-2.164s1.506-1.973,2.117-3.186
			c0.611-1.209,1.057-2.509,1.336-3.892L198.52,67.592z"/>
		<path fill="#4EC1E0" d="M238.654,65.548c0,0.703-0.045,1.399-0.142,2.104c-0.088,0.699-0.198,1.422-0.344,2.16l-3.336,16.556
			c-0.039,0.196-0.135,0.375-0.285,0.522c-0.146,0.15-0.379,0.275-0.688,0.377c-0.312,0.101-0.709,0.172-1.201,0.229
			c-0.49,0.049-1.105,0.071-1.846,0.071c-0.742,0-1.353-0.022-1.818-0.071c-0.469-0.058-0.836-0.129-1.096-0.229
			c-0.267-0.102-0.438-0.227-0.525-0.377c-0.09-0.147-0.115-0.326-0.076-0.522l3.246-16.07c0.098-0.48,0.174-0.974,0.229-1.476
			c0.049-0.497,0.067-0.938,0.067-1.319c0-0.9-0.188-1.646-0.563-2.224c-0.379-0.582-1.021-0.87-1.923-0.87
			c-0.821,0-1.682,0.262-2.569,0.776c-0.896,0.521-1.73,1.229-2.523,2.119c-0.789,0.893-1.498,1.934-2.116,3.123
			c-0.617,1.191-1.062,2.459-1.318,3.799l-2.438,12.144c-0.039,0.194-0.135,0.375-0.278,0.521c-0.152,0.15-0.388,0.275-0.693,0.377
			c-0.309,0.103-0.715,0.172-1.215,0.229c-0.502,0.049-1.113,0.071-1.832,0.071c-0.742,0-1.349-0.022-1.817-0.071
			c-0.472-0.058-0.843-0.127-1.111-0.229c-0.271-0.102-0.443-0.227-0.521-0.377c-0.08-0.146-0.104-0.326-0.062-0.521l5.38-26.826
			c0.037-0.199,0.125-0.375,0.255-0.525c0.131-0.15,0.332-0.271,0.602-0.354c0.271-0.096,0.623-0.162,1.054-0.216
			c0.434-0.053,0.946-0.071,1.553-0.071c0.616,0,1.12,0.021,1.516,0.071c0.392,0.054,0.695,0.12,0.916,0.216
			c0.222,0.088,0.365,0.204,0.438,0.354c0.066,0.15,0.084,0.326,0.046,0.525l-0.87,4.418c0.421-0.703,0.979-1.42,1.685-2.148
			c0.699-0.729,1.507-1.389,2.416-1.971c0.91-0.58,1.902-1.055,2.977-1.426c1.068-0.369,2.188-0.562,3.353-0.562
			c1.399,0,2.578,0.205,3.524,0.615c0.952,0.412,1.726,0.969,2.312,1.668c0.593,0.701,1.02,1.52,1.277,2.447
			C238.523,63.52,238.654,64.508,238.654,65.548z"/>
		<path fill="#4EC1E0" d="M35.291,116.5c0.072,0.522,0.104,0.938,0.098,1.243c-0.007,0.31-0.109,0.535-0.306,0.688
			c-0.196,0.153-0.521,0.248-0.972,0.283c-0.451,0.037-1.069,0.053-1.854,0.053c-0.553,0-1.003-0.008-1.354-0.029
			c-0.348-0.021-0.616-0.062-0.807-0.123c-0.188-0.057-0.318-0.145-0.394-0.26c-0.071-0.115-0.117-0.274-0.131-0.479l-0.765-5.681
			H18.2l-2.927,5.546c-0.102,0.204-0.217,0.379-0.351,0.516c-0.13,0.137-0.319,0.244-0.565,0.316
			c-0.248,0.069-0.577,0.118-0.993,0.149c-0.413,0.029-0.935,0.041-1.562,0.041c-0.668,0-1.189-0.02-1.559-0.062
			c-0.374-0.043-0.619-0.15-0.742-0.318c-0.125-0.166-0.141-0.402-0.045-0.709c0.095-0.305,0.281-0.713,0.557-1.221l13.707-25.062
			c0.145-0.248,0.293-0.442,0.438-0.6c0.146-0.152,0.354-0.271,0.621-0.354c0.268-0.08,0.634-0.131,1.093-0.149
			c0.458-0.021,1.06-0.031,1.801-0.031c0.859,0,1.538,0.012,2.042,0.031c0.502,0.021,0.893,0.069,1.167,0.149
			c0.275,0.08,0.458,0.203,0.546,0.357c0.088,0.16,0.145,0.383,0.176,0.656L35.291,116.5z M26.711,95.787h-0.02l-6.311,12.004h7.945
			L26.711,95.787z"/>
		<path fill="#4EC1E0" d="M54.337,118.01c-0.026,0.127-0.079,0.24-0.163,0.336c-0.082,0.096-0.208,0.172-0.381,0.229
			c-0.17,0.058-0.391,0.101-0.656,0.136c-0.269,0.026-0.601,0.045-0.994,0.045c-0.393,0-0.715-0.019-0.961-0.045
			c-0.25-0.035-0.442-0.078-0.584-0.136c-0.141-0.061-0.231-0.137-0.274-0.229c-0.048-0.096-0.048-0.209-0.011-0.336l0.516-2.766
			c-0.255,0.442-0.604,0.893-1.049,1.348c-0.446,0.449-0.958,0.861-1.534,1.238c-0.581,0.375-1.206,0.676-1.88,0.901
			c-0.676,0.229-1.367,0.347-2.079,0.347c-0.892,0-1.646-0.121-2.261-0.369c-0.616-0.248-1.113-0.588-1.486-1.015
			c-0.378-0.428-0.648-0.938-0.82-1.536c-0.173-0.601-0.259-1.244-0.259-1.943c0-0.432,0.029-0.873,0.086-1.324
			c0.058-0.453,0.132-0.916,0.22-1.385l2.099-10.547c0.024-0.127,0.087-0.236,0.182-0.332c0.097-0.097,0.241-0.172,0.438-0.229
			c0.195-0.059,0.453-0.104,0.771-0.133c0.316-0.035,0.706-0.051,1.163-0.051c0.472,0,0.854,0.016,1.155,0.051
			c0.298,0.029,0.529,0.074,0.695,0.133c0.164,0.062,0.275,0.137,0.334,0.229c0.058,0.096,0.07,0.205,0.047,0.332l-2.021,10.223
			c-0.065,0.279-0.112,0.572-0.144,0.877c-0.032,0.31-0.049,0.603-0.049,0.879c0,0.308,0.029,0.584,0.086,0.83
			c0.06,0.248,0.148,0.459,0.275,0.639c0.127,0.185,0.289,0.312,0.487,0.4c0.196,0.086,0.435,0.133,0.716,0.133
			c0.521,0,1.062-0.168,1.632-0.504c0.563-0.338,1.101-0.801,1.611-1.391c0.505-0.596,0.962-1.295,1.362-2.104
			c0.399-0.809,0.703-1.682,0.906-2.622l1.448-7.359c0.013-0.127,0.068-0.236,0.173-0.332c0.102-0.097,0.25-0.172,0.448-0.229
			c0.195-0.059,0.453-0.104,0.772-0.133c0.314-0.035,0.703-0.051,1.162-0.051c0.47,0,0.854,0.016,1.154,0.051
			c0.299,0.029,0.534,0.074,0.705,0.133c0.172,0.062,0.281,0.137,0.334,0.229c0.049,0.096,0.062,0.205,0.038,0.332L54.337,118.01z"
			/>
		<path fill="#4EC1E0" d="M72.533,101.15c0,0.125-0.012,0.289-0.038,0.488c-0.026,0.193-0.062,0.408-0.104,0.635
			c-0.045,0.229-0.104,0.459-0.182,0.688c-0.077,0.229-0.161,0.436-0.258,0.623c-0.096,0.184-0.205,0.334-0.323,0.457
			c-0.122,0.114-0.251,0.18-0.394,0.18h-3.719l-1.602,7.992c-0.039,0.188-0.075,0.414-0.104,0.678
			c-0.033,0.261-0.049,0.477-0.049,0.639c0,0.511,0.12,0.886,0.361,1.117c0.24,0.232,0.622,0.354,1.145,0.354
			c0.305,0,0.564-0.023,0.782-0.066c0.216-0.047,0.403-0.096,0.563-0.15c0.156-0.059,0.294-0.106,0.408-0.149
			c0.114-0.047,0.222-0.067,0.324-0.067s0.188,0.05,0.26,0.146c0.067,0.096,0.103,0.247,0.103,0.465
			c0,0.239-0.024,0.517-0.076,0.818c-0.05,0.309-0.116,0.604-0.198,0.891c-0.084,0.287-0.177,0.547-0.276,0.783
			c-0.104,0.229-0.21,0.403-0.325,0.521c-0.114,0.115-0.285,0.226-0.516,0.324c-0.229,0.104-0.5,0.188-0.81,0.27
			c-0.313,0.074-0.646,0.142-1.002,0.187c-0.356,0.041-0.713,0.062-1.069,0.062c-0.762,0-1.433-0.08-2.011-0.233
			c-0.579-0.16-1.065-0.414-1.46-0.757c-0.395-0.346-0.689-0.78-0.888-1.313c-0.197-0.534-0.295-1.185-0.295-1.945
			c0-0.143,0.006-0.305,0.02-0.481c0.011-0.188,0.034-0.382,0.067-0.585c0.029-0.2,0.062-0.407,0.095-0.616
			c0.031-0.211,0.067-0.398,0.104-0.562l1.658-8.297h-2.061c-0.164,0-0.285-0.057-0.361-0.16c-0.074-0.106-0.113-0.313-0.113-0.62
			c0-0.22,0.021-0.502,0.066-0.849c0.043-0.352,0.115-0.694,0.219-1.031c0.103-0.34,0.234-0.629,0.401-0.867
			c0.162-0.239,0.361-0.362,0.589-0.362h2.043l0.764-3.796c0.023-0.125,0.084-0.238,0.182-0.344
			c0.095-0.104,0.238-0.188,0.438-0.258c0.196-0.07,0.449-0.12,0.763-0.15c0.312-0.032,0.702-0.049,1.174-0.049
			c0.458,0,0.839,0.017,1.146,0.049c0.305,0.03,0.541,0.08,0.705,0.15c0.164,0.069,0.276,0.151,0.334,0.258
			c0.059,0.104,0.071,0.219,0.047,0.344l-0.764,3.796h3.682c0.217,0,0.362,0.069,0.438,0.211
			C72.493,100.686,72.533,100.883,72.533,101.15z"/>
		<path fill="#4EC1E0" d="M88.592,117.99c-0.025,0.128-0.085,0.24-0.18,0.339c-0.096,0.098-0.242,0.172-0.439,0.231
			c-0.197,0.066-0.451,0.111-0.763,0.146c-0.313,0.024-0.709,0.045-1.192,0.045c-0.457,0-0.838-0.021-1.135-0.045
			c-0.299-0.035-0.533-0.08-0.695-0.146c-0.166-0.062-0.276-0.139-0.334-0.231c-0.058-0.099-0.074-0.21-0.047-0.339l2.039-10.2
			c0.051-0.271,0.096-0.568,0.135-0.904c0.037-0.34,0.058-0.641,0.058-0.908c0-0.275-0.028-0.537-0.086-0.771
			c-0.058-0.236-0.149-0.438-0.276-0.609c-0.128-0.172-0.294-0.305-0.496-0.396c-0.203-0.1-0.445-0.146-0.725-0.146
			c-0.523,0-1.064,0.162-1.631,0.496c-0.566,0.33-1.102,0.781-1.604,1.354c-0.504,0.57-0.953,1.238-1.345,2.004
			c-0.394,0.765-0.675,1.568-0.839,2.425l-1.545,7.665c-0.027,0.128-0.086,0.24-0.182,0.337c-0.097,0.098-0.242,0.172-0.438,0.231
			c-0.198,0.066-0.456,0.111-0.771,0.146c-0.319,0.027-0.707,0.045-1.166,0.045c-0.47,0-0.855-0.018-1.152-0.045
			c-0.299-0.035-0.534-0.08-0.705-0.146c-0.174-0.062-0.284-0.139-0.333-0.231c-0.054-0.097-0.065-0.209-0.039-0.337l5.017-25.079
			c0.024-0.127,0.082-0.242,0.172-0.347c0.088-0.104,0.234-0.188,0.438-0.258c0.202-0.068,0.46-0.125,0.773-0.163
			c0.31-0.036,0.701-0.06,1.172-0.06c0.47,0,0.854,0.021,1.154,0.06c0.299,0.038,0.529,0.095,0.695,0.163
			c0.164,0.068,0.273,0.152,0.324,0.258c0.05,0.104,0.062,0.22,0.037,0.347l-1.354,6.901c-0.063,0.277-0.135,0.578-0.21,0.896
			c-0.074,0.313-0.16,0.633-0.257,0.943c-0.097,0.31-0.188,0.608-0.286,0.901c-0.095,0.293-0.189,0.555-0.275,0.781
			c0.238-0.406,0.571-0.812,0.99-1.221c0.42-0.406,0.899-0.773,1.44-1.105c0.539-0.332,1.125-0.598,1.756-0.809
			c0.629-0.209,1.272-0.316,1.935-0.316c0.864,0,1.596,0.121,2.193,0.361c0.598,0.242,1.087,0.58,1.469,1.014
			c0.381,0.432,0.659,0.943,0.83,1.543c0.172,0.604,0.258,1.252,0.258,1.965c0,0.459-0.027,0.912-0.076,1.365
			c-0.051,0.451-0.123,0.896-0.211,1.344L88.592,117.99z"/>
		<path fill="#4EC1E0" d="M112.073,106.699c0,0.916-0.087,1.855-0.259,2.82c-0.17,0.969-0.442,1.912-0.811,2.836
			c-0.369,0.922-0.844,1.785-1.42,2.599c-0.58,0.805-1.271,1.52-2.08,2.137c-0.809,0.613-1.732,1.102-2.775,1.457
			c-1.043,0.354-2.221,0.533-3.526,0.533c-1.287,0-2.396-0.148-3.328-0.447c-0.937-0.299-1.715-0.738-2.338-1.312
			c-0.622-0.58-1.086-1.294-1.392-2.137c-0.306-0.848-0.459-1.814-0.459-2.914c0-0.914,0.086-1.854,0.258-2.82
			c0.172-0.964,0.439-1.903,0.812-2.819c0.367-0.914,0.843-1.781,1.42-2.604c0.578-0.817,1.271-1.534,2.08-2.146
			c0.806-0.609,1.731-1.099,2.774-1.449c1.041-0.354,2.218-0.535,3.529-0.535c1.282,0,2.394,0.148,3.326,0.449
			c0.936,0.299,1.715,0.736,2.338,1.313c0.621,0.574,1.088,1.289,1.393,2.14C111.92,104.637,112.073,105.605,112.073,106.699z
			 M107.114,107.023c0-0.531-0.056-1.006-0.162-1.418c-0.109-0.418-0.287-0.764-0.533-1.049c-0.249-0.287-0.567-0.508-0.955-0.66
			c-0.388-0.147-0.86-0.229-1.42-0.229c-0.638,0-1.209,0.125-1.718,0.373c-0.508,0.248-0.964,0.579-1.362,1
			c-0.401,0.42-0.748,0.903-1.041,1.461c-0.293,0.553-0.534,1.133-0.725,1.739c-0.191,0.609-0.33,1.23-0.421,1.859
			c-0.088,0.629-0.133,1.23-0.133,1.801c0,0.535,0.055,1.017,0.162,1.437c0.106,0.418,0.287,0.771,0.533,1.059
			c0.25,0.287,0.565,0.504,0.955,0.658c0.387,0.152,0.859,0.229,1.42,0.229c0.637,0,1.208-0.121,1.717-0.364
			c0.508-0.25,0.965-0.591,1.364-1.017c0.401-0.428,0.745-0.916,1.038-1.469s0.535-1.143,0.727-1.754
			c0.189-0.619,0.33-1.24,0.42-1.863C107.068,108.195,107.114,107.596,107.114,107.023z"/>
		<path fill="#4EC1E0" d="M128.02,100.711c0,0.088-0.014,0.248-0.039,0.477c-0.022,0.229-0.062,0.496-0.11,0.803
			c-0.056,0.308-0.113,0.619-0.188,0.945c-0.076,0.322-0.162,0.625-0.263,0.902c-0.094,0.276-0.203,0.508-0.319,0.688
			c-0.123,0.185-0.254,0.271-0.396,0.271c-0.115,0-0.229-0.023-0.345-0.064c-0.112-0.045-0.239-0.092-0.383-0.135
			c-0.143-0.045-0.293-0.092-0.457-0.133c-0.166-0.045-0.354-0.068-0.573-0.068c-0.429,0-0.892,0.164-1.38,0.496
			c-0.489,0.332-0.957,0.768-1.402,1.311c-0.445,0.537-0.842,1.166-1.191,1.89c-0.351,0.717-0.602,1.469-0.752,2.26l-1.525,7.646
			c-0.027,0.128-0.086,0.241-0.182,0.337c-0.097,0.099-0.242,0.173-0.439,0.233c-0.197,0.065-0.456,0.11-0.771,0.146
			c-0.318,0.026-0.705,0.045-1.164,0.045c-0.47,0-0.856-0.019-1.152-0.045c-0.301-0.035-0.535-0.08-0.706-0.146
			c-0.173-0.062-0.284-0.14-0.333-0.233c-0.053-0.096-0.065-0.209-0.039-0.337l3.396-17.029c0.024-0.127,0.082-0.235,0.172-0.332
			c0.088-0.095,0.219-0.172,0.392-0.229c0.171-0.061,0.392-0.104,0.666-0.135c0.272-0.033,0.603-0.051,0.983-0.051
			c0.392,0,0.715,0.018,0.963,0.051c0.248,0.029,0.439,0.074,0.58,0.135c0.141,0.06,0.231,0.137,0.276,0.229
			c0.045,0.097,0.056,0.205,0.028,0.332l-0.533,2.709c0.307-0.547,0.659-1.052,1.059-1.508c0.401-0.46,0.825-0.855,1.278-1.191
			c0.45-0.338,0.918-0.603,1.399-0.793c0.486-0.188,0.959-0.284,1.432-0.284c0.189,0,0.383,0.011,0.582,0.038
			c0.195,0.025,0.381,0.06,0.553,0.096c0.174,0.037,0.324,0.091,0.461,0.146c0.133,0.061,0.234,0.114,0.312,0.184
			C127.98,100.426,128.02,100.547,128.02,100.711z"/>
		<path fill="#4EC1E0" d="M141.674,101.721c0,0.154-0.021,0.377-0.066,0.68c-0.045,0.299-0.106,0.604-0.194,0.904
			c-0.095,0.305-0.195,0.568-0.312,0.793c-0.123,0.221-0.262,0.332-0.41,0.332c-0.166,0-0.358-0.062-0.582-0.18
			c-0.229-0.121-0.494-0.254-0.812-0.4c-0.314-0.146-0.688-0.275-1.111-0.393c-0.43-0.115-0.928-0.17-1.498-0.17
			c-0.447,0-0.846,0.055-1.189,0.17c-0.354,0.11-0.643,0.271-0.868,0.471c-0.229,0.193-0.403,0.426-0.521,0.693
			c-0.123,0.268-0.188,0.553-0.188,0.854c0,0.396,0.164,0.729,0.483,0.992c0.324,0.266,0.729,0.521,1.214,0.754
			c0.479,0.234,1.006,0.479,1.562,0.732c0.56,0.258,1.078,0.569,1.564,0.953c0.482,0.383,0.883,0.848,1.201,1.395
			c0.312,0.545,0.477,1.229,0.477,2.062c0,0.965-0.184,1.859-0.555,2.685c-0.367,0.817-0.904,1.521-1.611,2.125
			c-0.703,0.598-1.562,1.062-2.574,1.401c-1.01,0.339-2.152,0.505-3.422,0.505c-0.611,0-1.193-0.048-1.746-0.14
			c-0.553-0.086-1.049-0.192-1.488-0.317c-0.438-0.128-0.811-0.275-1.11-0.439s-0.533-0.312-0.688-0.459
			c-0.104-0.1-0.176-0.207-0.223-0.321c-0.045-0.111-0.062-0.261-0.062-0.438c0-0.115,0.012-0.26,0.025-0.438
			c0.021-0.18,0.053-0.375,0.098-0.594c0.043-0.215,0.098-0.43,0.152-0.646c0.057-0.215,0.123-0.407,0.199-0.588
			c0.075-0.184,0.156-0.319,0.246-0.43c0.09-0.111,0.184-0.166,0.285-0.166c0.18,0,0.373,0.076,0.594,0.229
			c0.217,0.147,0.493,0.315,0.84,0.508c0.344,0.184,0.768,0.354,1.271,0.516c0.5,0.156,1.125,0.236,1.877,0.236
			c0.521,0,0.977-0.062,1.365-0.183c0.385-0.118,0.705-0.286,0.961-0.51c0.254-0.217,0.438-0.465,0.562-0.74
			c0.119-0.276,0.183-0.577,0.183-0.896c0-0.445-0.156-0.809-0.47-1.086c-0.312-0.279-0.705-0.541-1.174-0.781
			c-0.474-0.238-0.979-0.486-1.535-0.744c-0.551-0.256-1.063-0.562-1.534-0.936c-0.472-0.369-0.859-0.828-1.175-1.373
			s-0.465-1.231-0.465-2.062c0-0.899,0.17-1.739,0.515-2.52c0.344-0.771,0.846-1.451,1.51-2.029
			c0.656-0.578,1.459-1.024,2.399-1.354c0.938-0.324,2.009-0.488,3.205-0.488c0.532,0,1.051,0.033,1.554,0.107
			c0.504,0.063,0.954,0.157,1.354,0.271c0.396,0.115,0.747,0.24,1.05,0.383c0.299,0.144,0.513,0.277,0.64,0.418
			C141.605,101.199,141.674,101.416,141.674,101.721z"/>
		<path fill="#4EC1E0" d="M171.898,93.406c0,0.146-0.01,0.339-0.031,0.564c-0.023,0.234-0.059,0.486-0.109,0.756
			c-0.05,0.271-0.113,0.539-0.184,0.812c-0.076,0.27-0.16,0.514-0.266,0.729c-0.104,0.215-0.213,0.396-0.338,0.533
			c-0.123,0.139-0.25,0.209-0.386,0.209c-0.219,0-0.521-0.125-0.918-0.373s-0.897-0.521-1.522-0.828
			c-0.625-0.305-1.396-0.584-2.293-0.83c-0.9-0.242-1.978-0.371-3.207-0.371c-1.238,0-2.373,0.185-3.404,0.533
			c-1.033,0.359-1.977,0.85-2.826,1.465c-0.854,0.619-1.602,1.353-2.25,2.187c-0.648,0.838-1.193,1.731-1.637,2.696
			c-0.445,0.954-0.775,1.954-0.994,2.982c-0.221,1.035-0.328,2.053-0.328,3.062c0,1.115,0.16,2.104,0.482,2.941
			c0.313,0.846,0.776,1.547,1.387,2.117c0.602,0.568,1.334,0.996,2.191,1.289c0.854,0.289,1.813,0.438,2.881,0.438
			c0.713,0,1.418-0.071,2.119-0.221c0.694-0.145,1.346-0.357,1.938-0.654l1.312-6.522h-5.324c-0.174,0-0.312-0.07-0.416-0.207
			c-0.104-0.137-0.152-0.357-0.152-0.668c0-0.146,0.014-0.332,0.045-0.564c0.029-0.229,0.068-0.477,0.119-0.729
			c0.049-0.256,0.115-0.515,0.186-0.773c0.074-0.264,0.164-0.496,0.273-0.697c0.107-0.204,0.229-0.372,0.359-0.504
			c0.129-0.131,0.271-0.19,0.438-0.19h9.539c0.48,0,0.82,0.16,1.025,0.479c0.203,0.315,0.246,0.771,0.131,1.354l-2.27,11.309
			c-0.062,0.277-0.138,0.516-0.224,0.709c-0.088,0.199-0.205,0.377-0.354,0.535c-0.156,0.176-0.526,0.383-1.108,0.625
			c-0.582,0.236-1.291,0.477-2.13,0.709c-0.838,0.23-1.771,0.43-2.807,0.588c-1.035,0.16-2.088,0.238-3.166,0.238
			c-2.021,0-3.805-0.229-5.348-0.695s-2.836-1.158-3.875-2.088c-1.041-0.924-1.83-2.053-2.369-3.391
			c-0.537-1.343-0.807-2.888-0.807-4.631c0-1.568,0.172-3.113,0.514-4.632c0.342-1.512,0.852-2.944,1.527-4.312
			c0.678-1.355,1.514-2.617,2.51-3.776c0.998-1.15,2.154-2.15,3.471-2.997c1.318-0.848,2.783-1.503,4.4-1.979
			c1.611-0.478,3.381-0.709,5.303-0.709c1.062,0,2.066,0.084,3.012,0.25c0.947,0.17,1.797,0.373,2.547,0.611
			c0.744,0.237,1.38,0.5,1.89,0.771c0.513,0.279,0.853,0.492,1.021,0.646c0.168,0.15,0.272,0.321,0.336,0.512
			C171.869,92.898,171.898,93.131,171.898,93.406z"/>
		<path fill="#4EC1E0" d="M188.283,118.01c-0.023,0.127-0.078,0.24-0.162,0.336c-0.082,0.096-0.211,0.172-0.383,0.229
			c-0.172,0.057-0.391,0.101-0.658,0.136c-0.266,0.026-0.596,0.045-0.992,0.045c-0.391,0-0.713-0.019-0.963-0.045
			c-0.246-0.035-0.439-0.078-0.58-0.136c-0.139-0.061-0.23-0.137-0.275-0.229c-0.047-0.096-0.049-0.209-0.012-0.336l0.516-2.766
			c-0.254,0.442-0.602,0.893-1.051,1.348c-0.438,0.449-0.955,0.861-1.533,1.238c-0.58,0.375-1.205,0.676-1.879,0.901
			c-0.674,0.229-1.36,0.347-2.08,0.347c-0.889,0-1.641-0.121-2.26-0.369c-0.617-0.248-1.113-0.588-1.488-1.015
			c-0.373-0.428-0.646-0.938-0.813-1.536c-0.174-0.601-0.258-1.244-0.258-1.943c0-0.432,0.024-0.873,0.084-1.324
			c0.062-0.453,0.133-0.916,0.222-1.385l2.102-10.547c0.021-0.127,0.086-0.236,0.182-0.332c0.096-0.097,0.242-0.172,0.438-0.229
			c0.199-0.059,0.457-0.104,0.773-0.133c0.318-0.035,0.707-0.051,1.162-0.051c0.473,0,0.857,0.016,1.156,0.051
			c0.297,0.029,0.531,0.074,0.695,0.133c0.164,0.062,0.272,0.137,0.334,0.229c0.059,0.096,0.069,0.205,0.047,0.332l-2.021,10.223
			c-0.064,0.279-0.109,0.572-0.143,0.877c-0.031,0.31-0.049,0.603-0.049,0.879c0,0.308,0.024,0.584,0.088,0.83
			c0.057,0.248,0.146,0.459,0.271,0.639c0.129,0.185,0.289,0.312,0.481,0.4c0.199,0.086,0.438,0.133,0.72,0.133
			c0.521,0,1.062-0.168,1.631-0.504c0.562-0.338,1.104-0.801,1.606-1.391c0.515-0.596,0.97-1.295,1.363-2.104
			c0.402-0.809,0.705-1.682,0.908-2.622l1.447-7.359c0.016-0.127,0.072-0.236,0.172-0.332c0.105-0.097,0.252-0.172,0.449-0.229
			c0.197-0.059,0.457-0.104,0.771-0.133c0.315-0.035,0.702-0.051,1.159-0.051c0.476,0,0.856,0.016,1.154,0.051
			c0.299,0.029,0.534,0.074,0.707,0.133c0.17,0.062,0.278,0.137,0.332,0.229c0.053,0.096,0.062,0.205,0.038,0.332L188.283,118.01z"
			/>
		<path fill="#4EC1E0" d="M197.895,117.99c-0.021,0.128-0.084,0.24-0.18,0.339c-0.096,0.098-0.24,0.172-0.438,0.231
			c-0.197,0.066-0.457,0.111-0.775,0.146c-0.316,0.024-0.703,0.045-1.162,0.045c-0.469,0-0.854-0.021-1.152-0.045
			c-0.299-0.035-0.535-0.08-0.707-0.146c-0.172-0.062-0.278-0.139-0.334-0.231c-0.049-0.099-0.062-0.21-0.039-0.339l3.377-16.977
			c0.027-0.125,0.091-0.234,0.187-0.332c0.099-0.096,0.24-0.18,0.438-0.248c0.199-0.07,0.453-0.125,0.766-0.164
			c0.312-0.037,0.703-0.057,1.174-0.057c0.473,0,0.854,0.02,1.152,0.057c0.299,0.039,0.531,0.094,0.707,0.164
			c0.172,0.068,0.281,0.152,0.331,0.248c0.054,0.098,0.065,0.207,0.038,0.332L197.895,117.99z M202.816,95.256
			c-0.088,0.469-0.211,0.869-0.363,1.192c-0.152,0.32-0.354,0.582-0.609,0.779c-0.254,0.195-0.564,0.334-0.934,0.42
			c-0.369,0.08-0.826,0.121-1.375,0.121c-0.533,0-0.969-0.041-1.305-0.121c-0.336-0.086-0.592-0.225-0.769-0.42
			c-0.172-0.197-0.271-0.459-0.295-0.779c-0.021-0.323,0.019-0.729,0.112-1.192c0.091-0.459,0.21-0.851,0.359-1.164
			c0.152-0.316,0.355-0.578,0.609-0.783c0.256-0.201,0.568-0.35,0.936-0.438c0.369-0.091,0.826-0.14,1.373-0.14
			c0.535,0,0.976,0.049,1.312,0.14c0.336,0.088,0.592,0.231,0.762,0.438c0.177,0.205,0.271,0.467,0.287,0.783
			C202.939,94.407,202.908,94.797,202.816,95.256z"/>
		<path fill="#4EC1E0" d="M207.488,117.99c-0.023,0.128-0.084,0.24-0.18,0.339c-0.101,0.098-0.238,0.172-0.435,0.231
			c-0.188,0.066-0.438,0.111-0.767,0.146c-0.312,0.024-0.7,0.045-1.159,0.045c-0.479,0-0.873-0.021-1.179-0.045
			c-0.297-0.035-0.524-0.08-0.69-0.146c-0.164-0.062-0.272-0.139-0.334-0.231c-0.062-0.098-0.072-0.21-0.047-0.339l5.016-25.077
			c0.027-0.13,0.084-0.242,0.177-0.349c0.09-0.104,0.231-0.188,0.438-0.256c0.205-0.07,0.463-0.125,0.773-0.164
			c0.312-0.037,0.705-0.059,1.172-0.059c0.473,0,0.854,0.021,1.154,0.059c0.301,0.039,0.528,0.094,0.692,0.164
			c0.166,0.068,0.271,0.152,0.321,0.256c0.054,0.104,0.062,0.22,0.035,0.349L207.488,117.99z"/>
		<path fill="#4EC1E0" d="M228.107,118.01c-0.054,0.27-0.248,0.459-0.604,0.572c-0.35,0.11-0.912,0.172-1.688,0.172
			c-0.396,0-0.722-0.015-0.964-0.037c-0.25-0.027-0.448-0.066-0.604-0.123s-0.25-0.133-0.297-0.229
			c-0.043-0.098-0.053-0.217-0.029-0.354l0.521-2.729c-0.189,0.408-0.496,0.841-0.916,1.291c-0.418,0.447-0.914,0.859-1.486,1.238
			c-0.572,0.373-1.203,0.682-1.896,0.916c-0.693,0.232-1.406,0.354-2.146,0.354c-0.725,0-1.357-0.095-1.898-0.272
			c-0.537-0.188-1.002-0.438-1.393-0.756c-0.387-0.316-0.707-0.693-0.965-1.127c-0.252-0.433-0.457-0.89-0.609-1.373
			c-0.15-0.481-0.26-0.979-0.322-1.494c-0.062-0.514-0.098-1.021-0.098-1.521c0-0.825,0.076-1.713,0.229-2.655
			c0.154-0.951,0.396-1.894,0.721-2.824c0.32-0.937,0.73-1.834,1.229-2.701c0.494-0.863,1.095-1.629,1.783-2.285
			c0.693-0.662,1.488-1.188,2.385-1.588c0.896-0.391,1.904-0.59,3.023-0.59c0.494,0,0.969,0.055,1.42,0.164
			c0.451,0.107,0.867,0.25,1.24,0.438c0.375,0.183,0.715,0.396,1.02,0.652c0.31,0.256,0.568,0.521,0.783,0.805l1.812-8.983
			c0.022-0.125,0.084-0.24,0.172-0.344c0.09-0.104,0.229-0.188,0.43-0.255c0.197-0.073,0.451-0.128,0.762-0.165
			c0.314-0.037,0.705-0.062,1.176-0.062c0.476,0,0.855,0.021,1.152,0.062c0.299,0.036,0.533,0.092,0.695,0.165
			c0.166,0.064,0.271,0.148,0.326,0.255c0.051,0.104,0.062,0.219,0.037,0.344L228.107,118.01z M225.725,106.09
			c-0.44-0.697-0.938-1.229-1.479-1.582c-0.541-0.357-1.166-0.535-1.879-0.535c-0.521,0-1.002,0.125-1.439,0.373
			c-0.437,0.248-0.832,0.576-1.184,0.992c-0.348,0.412-0.654,0.896-0.914,1.449c-0.26,0.553-0.479,1.133-0.648,1.739
			c-0.172,0.609-0.303,1.226-0.393,1.83c-0.086,0.611-0.133,1.189-0.133,1.736c0,0.965,0.16,1.693,0.477,2.188
			c0.318,0.486,0.82,0.73,1.508,0.73c0.562,0,1.136-0.168,1.72-0.504c0.586-0.34,1.133-0.789,1.641-1.354
			c0.51-0.564,0.957-1.232,1.344-2.005c0.396-0.77,0.672-1.594,0.854-2.471L225.725,106.09z"/>
	</g>
</g>
</svg>
